<svg xmlns="http://www.w3.org/2000/svg" height="20" width="20"><path d="M9.5 17q-1.042 0-1.771-.729Q7 15.542 7 14.5h1.5q0 .417.292.708.291.292.708.292t.708-.292q.292-.291.292-.708t-.292-.708Q9.917 13.5 9.5 13.5H2V12h7.5q1.042 0 1.771.729.729.729.729 1.771 0 1.042-.729 1.771Q10.542 17 9.5 17ZM2 8.5V7h11.25q.521 0 .885-.365.365-.364.365-.885t-.365-.885q-.364-.365-.885-.365t-.885.365Q12 5.229 12 5.75h-1.5q0-1.146.802-1.948T13.25 3q1.146 0 1.948.802T16 5.75q0 1.146-.802 1.948T13.25 8.5ZM15.25 15v-1.5q.521 0 .885-.365.365-.364.365-.885t-.365-.885Q15.771 11 15.25 11H2V9.5h13.25q1.146 0 1.948.802T18 12.25q0 1.146-.802 1.948T15.25 15Z"/></svg>