<svg xmlns="http://www.w3.org/2000/svg" height="20" width="20"><path d="M11.458 17.917q-.291.145-.573.052-.281-.094-.427-.386l-1.25-2.5q-.146-.291-.052-.573.094-.281.386-.427.27-.145.562-.052.292.094.438.386l1.25 2.5q.146.291.052.573-.094.281-.386.427Zm4.125 0q-.291.145-.583.052-.292-.094-.438-.386l-1.25-2.5q-.145-.291-.041-.573.104-.281.396-.427.291-.145.573-.052.281.094.427.386l1.25 2.5q.145.291.052.573-.094.281-.386.427Zm-8.25 0q-.291.145-.583.052-.292-.094-.438-.386l-1.25-2.5q-.145-.291-.041-.573.104-.281.396-.427.291-.145.573-.052.281.094.427.386l1.25 2.5q.145.291.052.573-.094.281-.386.427ZM6.146 13q-1.771 0-2.958-1.281Q2 10.438 2 8.646q0-1.604 1.094-2.761 1.094-1.156 2.698-1.364.625-1.167 1.76-1.844Q8.688 2 10 2q1.771 0 3.083 1.135Q14.396 4.271 14.688 6q1.395.042 2.354 1.083Q18 8.125 18 9.5q0 1.458-1.021 2.479Q15.958 13 14.5 13Zm.104-1.5h8.25q.833 0 1.417-.583.583-.584.583-1.417 0-.833-.583-1.417Q15.333 7.5 14.5 7.5h-1.104l-.188-1.25q-.166-1.188-1.083-1.969Q11.208 3.5 10 3.5q-.958 0-1.75.521T7.042 5.417L6.75 6h-.5q-1.146 0-1.948.802T3.5 8.75q0 1.146.802 1.948t1.948.802Zm3.75-4Z"/></svg>